<?xml version="1.0" encoding="UTF-8"?>
<!DOCTYPE svg PUBLIC "-//W3C//DTD SVG 1.1//EN" "http://www.w3.org/Graphics/SVG/1.1/DTD/svg11.dtd">
<svg xmlns="http://www.w3.org/2000/svg" version="1.1" width="262px" height="372px" style="shape-rendering:geometricPrecision; text-rendering:geometricPrecision; image-rendering:optimizeQuality; fill-rule:evenodd; clip-rule:evenodd" xmlns:xlink="http://www.w3.org/1999/xlink">
<g><path style="opacity:0.995" fill="#c27344" d="M 118.5,42.5 C 174.365,40.3328 214.199,64.3328 238,114.5C 255.26,165.96 244.093,210.127 204.5,247C 167.735,274.88 127.735,280.546 84.5,264C 40.3968,242.533 17.0635,207.2 14.5,158C 19.6268,92.7144 54.2934,54.2144 118.5,42.5 Z"/></g>
<g><path style="opacity:1" fill="#fcf8f6" d="M 137.5,79.5 C 151.839,77.9232 163.673,82.5899 173,93.5C 176.623,98.206 178.123,103.539 177.5,109.5C 177.921,117.744 176.088,125.411 172,132.5C 160.667,141.833 149.333,151.167 138,160.5C 133.531,167.771 129.865,175.438 127,183.5C 119.609,196.124 108.776,204.291 94.5,208C 87.0088,208.927 79.5088,209.761 72,210.5C 52.1957,210.86 42.6957,201.193 43.5,181.5C 46.1491,163.002 55.4825,148.835 71.5,139C 77.7132,135.038 84.3799,132.038 91.5,130C 96.5105,118.141 102.677,106.975 110,96.5C 117.106,87.1759 126.272,81.5092 137.5,79.5 Z"/></g>
<g><path style="opacity:1" fill="#c4784b" d="M 143.5,90.5 C 146.187,90.3359 148.854,90.5026 151.5,91C 151.957,91.414 152.291,91.914 152.5,92.5C 150.694,97.9204 148.694,103.254 146.5,108.5C 143.307,107.772 141.307,105.939 140.5,103C 141.824,98.8856 142.824,94.7189 143.5,90.5 Z"/></g>
<g><path style="opacity:1" fill="#c57a4d" d="M 137.5,90.5 C 138.978,90.238 140.311,90.5713 141.5,91.5C 140.012,95.7872 138.678,100.121 137.5,104.5C 134.904,103.518 132.238,102.851 129.5,102.5C 129.335,99.4816 129.502,96.4816 130,93.5C 132.48,92.1885 134.98,91.1885 137.5,90.5 Z"/></g>
<g><path style="opacity:1" fill="#c4774a" d="M 154.5,93.5 C 157.168,93.8337 159.168,95.1671 160.5,97.5C 159.103,102.772 157.937,108.106 157,113.5C 156.586,113.957 156.086,114.291 155.5,114.5C 152.55,113.375 150.55,111.375 149.5,108.5C 150.977,103.404 152.643,98.4035 154.5,93.5 Z"/></g>
<g><path style="opacity:1" fill="#daa98d" d="M 124.5,100.5 C 126.256,99.4479 126.923,97.7812 126.5,95.5C 127.513,96.6591 127.847,98.6591 127.5,101.5C 126.209,101.737 125.209,101.404 124.5,100.5 Z"/></g>
<g><path style="opacity:1" fill="#c37648" d="M 126.5,95.5 C 126.923,97.7812 126.256,99.4479 124.5,100.5C 123.448,100.649 122.448,100.483 121.5,100C 123.037,98.2927 124.704,96.7927 126.5,95.5 Z"/></g>
<g><path style="opacity:1" fill="#c4784b" d="M 162.5,98.5 C 163.885,99.5736 165.051,100.907 166,102.5C 166.667,107.833 166.667,113.167 166,118.5C 165.751,119.624 165.251,120.624 164.5,121.5C 162.329,119.828 160.329,117.995 158.5,116C 159.942,110.194 161.275,104.361 162.5,98.5 Z"/></g>
<g><path style="opacity:1" fill="#c4784b" d="M 118.5,102.5 C 120.527,102.338 122.527,102.505 124.5,103C 124.957,103.414 125.291,103.914 125.5,104.5C 123.941,108.619 122.107,112.619 120,116.5C 116.854,117.549 113.688,117.383 110.5,116C 112.995,111.352 115.662,106.852 118.5,102.5 Z"/></g>
<g><path style="opacity:1" fill="#c4774a" d="M 127.5,104.5 C 130.85,104.506 133.85,105.506 136.5,107.5C 134.393,111.381 132.559,115.381 131,119.5C 127.704,120.515 124.871,119.682 122.5,117C 124.601,112.97 126.268,108.804 127.5,104.5 Z"/></g>
<g><path style="opacity:1" fill="#c4774a" d="M 138.5,107.5 C 141.384,108.38 144.05,109.713 146.5,111.5C 144.547,117.033 142.214,122.367 139.5,127.5C 136.94,125.727 134.607,123.727 132.5,121.5C 134.701,116.891 136.701,112.225 138.5,107.5 Z"/></g>
<g><path style="opacity:1" fill="#c4784a" d="M 147.5,112.5 C 151.119,113.478 153.785,115.645 155.5,119C 153.136,125.091 150.969,131.258 149,137.5C 146.618,134.573 144.118,131.739 141.5,129C 144.391,123.826 146.391,118.326 147.5,112.5 Z"/></g>
<g><path style="opacity:1" fill="#c37648" d="M 108.5,119.5 C 111.85,119.335 115.183,119.502 118.5,120C 114.769,126.642 110.436,132.809 105.5,138.5C 103.775,137.985 102.108,137.318 100.5,136.5C 102.907,130.686 105.574,125.02 108.5,119.5 Z"/></g>
<g><path style="opacity:1" fill="#c47749" d="M 120.5,120.5 C 123.475,120.713 126.142,121.713 128.5,123.5C 124.972,130.567 120.472,136.9 115,142.5C 112.525,142.016 110.692,140.683 109.5,138.5C 113.194,132.483 116.86,126.483 120.5,120.5 Z"/></g>
<g><path style="opacity:1" fill="#c57a4e" d="M 157.5,119.5 C 160.293,120.459 162.293,122.293 163.5,125C 160.916,129.811 157.249,132.645 152.5,133.5C 154.568,128.962 156.235,124.295 157.5,119.5 Z"/></g>
<g><path style="opacity:1" fill="#c47749" d="M 130.5,124.5 C 133.283,126.067 135.949,127.9 138.5,130C 134.409,136.592 129.743,142.759 124.5,148.5C 122.032,147.197 119.699,145.697 117.5,144C 122.84,138.162 127.173,131.662 130.5,124.5 Z"/></g>
<g><path style="opacity:1" fill="#c4784b" d="M 139.5,131.5 C 142.297,133.795 144.964,136.295 147.5,139C 140.487,143.004 134.487,148.171 129.5,154.5C 127.054,153.573 126.221,151.906 127,149.5C 131.802,143.878 135.969,137.878 139.5,131.5 Z"/></g>
<g><path style="opacity:1" fill="#fdfcfb" d="M 211.5,150.5 C 217.064,153.064 218.898,157.397 217,163.5C 207.88,177.282 195.047,184.116 178.5,184C 164.534,176.596 161.7,166.096 170,152.5C 179.394,140.92 191.56,136.42 206.5,139C 212.157,141.187 213.824,145.02 211.5,150.5 Z"/></g>
<g><path style="opacity:1" fill="#c5794c" d="M 93.5,140.5 C 97.1817,140.335 100.848,140.501 104.5,141C 99.8333,145.667 95.1667,150.333 90.5,155C 84.8003,154.16 79.1336,152.826 73.5,151C 79.5339,146.151 86.2005,142.651 93.5,140.5 Z"/></g>
<g><path style="opacity:1" fill="#c37648" d="M 106.5,141.5 C 109.303,142.067 111.636,143.4 113.5,145.5C 109.713,151.389 105.213,156.723 100,161.5C 97.5,159.667 95,157.833 92.5,156C 97.3699,151.298 102.037,146.465 106.5,141.5 Z"/></g>
<g><path style="opacity:1" fill="#c37648" d="M 115.5,146.5 C 118.655,146.984 120.988,148.651 122.5,151.5C 118.73,158.037 114.23,164.037 109,169.5C 106.833,167.333 104.667,165.167 102.5,163C 107.429,157.912 111.762,152.412 115.5,146.5 Z"/></g>
<g><path style="opacity:1" fill="#c37547" d="M 69.5,153.5 C 75.4217,153.73 81.0883,155.064 86.5,157.5C 82.3707,163.134 77.2041,167.468 71,170.5C 66.8333,169.333 62.6667,168.167 58.5,167C 61.6223,162.046 65.2889,157.546 69.5,153.5 Z"/></g>
<g><path style="opacity:1" fill="#c4784a" d="M 123.5,153.5 C 125.595,153.76 126.928,154.926 127.5,157C 123.333,164.836 119.333,172.67 115.5,180.5C 113.707,177.749 112.041,174.916 110.5,172C 115.442,166.231 119.775,160.064 123.5,153.5 Z"/></g>
<g><path style="opacity:1" fill="#dbaa8d" d="M 211.5,150.5 C 208.337,153.415 204.67,155.248 200.5,156C 203.91,153.628 207.577,151.795 211.5,150.5 Z"/></g>
<g><path style="opacity:1" fill="#c47749" d="M 89.5,158.5 C 93.2101,158.874 96.2101,160.541 98.5,163.5C 94.6821,167.818 90.6821,171.985 86.5,176C 85.1667,176.667 83.8333,176.667 82.5,176C 79.9861,174.243 77.3194,172.743 74.5,171.5C 79.8403,167.488 84.8403,163.155 89.5,158.5 Z"/></g>
<g><path style="opacity:1" fill="#c4784a" d="M 99.5,165.5 C 102.97,166.288 105.637,168.288 107.5,171.5C 103.461,176.54 98.7944,180.873 93.5,184.5C 91.1667,182.833 89.1667,180.833 87.5,178.5C 91.5219,174.146 95.5219,169.813 99.5,165.5 Z"/></g>
<g><path style="opacity:1" fill="#c5794c" d="M 57.5,169.5 C 61.1981,170.341 64.8648,171.341 68.5,172.5C 64.2354,176.638 59.5687,180.305 54.5,183.5C 53.8919,178.586 54.8919,173.919 57.5,169.5 Z"/></g>
<g><path style="opacity:1" fill="#c37547" d="M 70.5,173.5 C 75.0134,174.172 79.0134,176.005 82.5,179C 75.5,184.667 68.5,190.333 61.5,196C 60.0563,196.781 58.723,196.614 57.5,195.5C 55.7146,192.727 54.8813,189.727 55,186.5C 60.65,182.678 65.8166,178.345 70.5,173.5 Z"/></g>
<g><path style="opacity:1" fill="#c37648" d="M 107.5,174.5 C 108.496,174.414 109.329,174.748 110,175.5C 112.208,178.554 113.208,181.887 113,185.5C 109.603,188.568 105.936,191.235 102,193.5C 99.3917,191.65 97.225,189.316 95.5,186.5C 97.6655,184.507 99.9989,182.673 102.5,181C 103.999,178.672 105.666,176.505 107.5,174.5 Z"/></g>
<g><path style="opacity:1" fill="#c4784b" d="M 83.5,180.5 C 86.787,181.264 89.4537,183.097 91.5,186C 86.5,190.333 81.5,194.667 76.5,199C 71.7133,199.879 67.0466,199.545 62.5,198C 69.9403,192.625 76.9403,186.791 83.5,180.5 Z"/></g>
<g><path style="opacity:1" fill="#fdfcfa" d="M 146.5,186.5 C 148.329,193.815 150.162,201.148 152,208.5C 150.91,200.201 149.743,191.868 148.5,183.5C 151.518,181.537 154.851,181.037 158.5,182C 172.941,193.366 177.775,207.866 173,225.5C 167.486,235.101 159.319,238.268 148.5,235C 144.76,233.71 141.593,231.543 139,228.5C 131.402,215.727 130.069,202.394 135,188.5C 138.447,184.18 142.28,183.513 146.5,186.5 Z"/></g>
<g><path style="opacity:1" fill="#c4784b" d="M 91.5,188.5 C 92.552,188.351 93.552,188.517 94.5,189C 95.6399,190.973 96.9733,192.807 98.5,194.5C 92.3827,197.073 86.0494,198.573 79.5,199C 83.6932,195.635 87.6932,192.135 91.5,188.5 Z"/></g>
<g><path style="opacity:1" fill="#e2baa3" d="M 148.5,183.5 C 149.743,191.868 150.91,200.201 152,208.5C 150.162,201.148 148.329,193.815 146.5,186.5C 147.167,185.5 147.833,184.5 148.5,183.5 Z"/></g>
<g><path style="opacity:0.144" fill="#000000" d="M 154.5,306.5 C 155.601,305.402 156.934,305.235 158.5,306C 157.207,306.49 155.873,306.657 154.5,306.5 Z"/></g>
<g><path style="opacity:0.118" fill="#000000" d="M 163.5,306.5 C 173.325,305.342 183.325,305.175 193.5,306C 188.914,306.197 184.414,306.697 180,307.5C 174.422,306.716 168.922,306.383 163.5,306.5 Z"/></g>
</svg>
