<?xml version="1.0" encoding="UTF-8"?>
<!DOCTYPE svg PUBLIC "-//W3C//DTD SVG 1.1//EN" "http://www.w3.org/Graphics/SVG/1.1/DTD/svg11.dtd">
<svg xmlns="http://www.w3.org/2000/svg" version="1.1" width="262px" height="372px" style="shape-rendering:geometricPrecision; text-rendering:geometricPrecision; image-rendering:optimizeQuality; fill-rule:evenodd; clip-rule:evenodd" xmlns:xlink="http://www.w3.org/1999/xlink">
<g><path style="opacity:0.995" fill="#da4752" d="M 119.5,24.5 C 173.963,22.6316 213.13,45.965 237,94.5C 254.336,141.161 246.669,183.161 214,220.5C 176.969,255.037 134.469,263.87 86.5,247C 34.6968,222.25 11.1968,181.083 16,123.5C 27.6109,66.3858 62.1109,33.3858 119.5,24.5 Z"/></g>
<g><path style="opacity:1" fill="#fdf9fa" d="M 180.5,200.5 C 179.833,197.167 179.167,193.833 178.5,190.5C 176.593,195.167 174.26,200.333 171.5,206C 166.657,208.336 161.657,210.169 156.5,211.5C 155.667,201.84 154.834,192.173 154,182.5C 152.649,190.797 152.316,199.13 153,207.5C 156.305,210.751 155.471,211.917 150.5,211C 145.565,208.394 140.898,205.394 136.5,202C 133.208,201.104 130.875,202.271 129.5,205.5C 128.702,205.043 128.369,204.376 128.5,203.5C 127.679,199.873 126.346,196.54 124.5,193.5C 121.753,176.278 120.92,158.945 122,141.5C 123.937,123.665 126.77,105.998 130.5,88.5C 131.775,86.3916 132.275,84.0583 132,81.5C 130.991,83.0249 130.491,84.6916 130.5,86.5C 126.128,95.6471 123.128,105.314 121.5,115.5C 120.539,113.735 120.205,111.735 120.5,109.5C 121.815,94.9086 125.315,80.9086 131,67.5C 133.015,72.5186 136.182,76.6852 140.5,80C 181.438,100.032 198.605,132.865 192,178.5C 191.033,187.438 187.2,194.771 180.5,200.5 Z"/></g>
<g><path style="opacity:1" fill="#fdf8f8" d="M 123.5,75.5 C 124.097,75.7352 124.43,76.2352 124.5,77C 114.82,98.8658 109.154,121.699 107.5,145.5C 108.142,162.786 110.642,179.786 115,196.5C 116.999,202.024 119.832,207.024 123.5,211.5C 123.333,211.833 123.167,212.167 123,212.5C 120.017,210.516 117.35,208.183 115,205.5C 114.127,205.735 113.293,206.069 112.5,206.5C 107.513,198.59 106.179,199.59 108.5,209.5C 104.187,209.452 100.187,208.285 96.5,206C 89.5204,199.358 83.687,191.858 79,183.5C 78.3333,185.5 78.3333,187.5 79,189.5C 80.5484,190.914 81.215,192.58 81,194.5C 68.8763,184.185 64.8763,171.185 69,155.5C 70.9864,138.542 75.9864,122.542 84,107.5C 87.5754,102.2 91.7421,97.3671 96.5,93C 105.906,87.6408 114.906,81.8074 123.5,75.5 Z"/></g>
<g><path style="opacity:1" fill="#efafb3" d="M 130.5,88.5 C 130.5,87.8333 130.5,87.1667 130.5,86.5C 130.491,84.6916 130.991,83.0249 132,81.5C 132.275,84.0583 131.775,86.3916 130.5,88.5 Z"/></g>
<g><path style="opacity:1" fill="#e0636a" d="M 135.5,85.5 C 139.972,91.7062 142.139,98.7062 142,106.5C 136.987,100.451 134.82,93.4514 135.5,85.5 Z"/></g>
<g><path style="opacity:1" fill="#dd5860" d="M 105.5,89.5 C 106.873,89.3433 108.207,89.51 109.5,90C 106.24,96.3566 101.907,101.857 96.5,106.5C 95.3861,105.277 95.2195,103.944 96,102.5C 99.6649,98.4919 102.832,94.1586 105.5,89.5 Z"/></g>
<g><path style="opacity:1" fill="#db4e58" d="M 130.5,86.5 C 130.5,87.1667 130.5,87.8333 130.5,88.5C 126.77,105.998 123.937,123.665 122,141.5C 120.92,158.945 121.753,176.278 124.5,193.5C 117.964,176.855 115.797,159.521 118,141.5C 118.677,132.752 119.843,124.085 121.5,115.5C 123.128,105.314 126.128,95.6471 130.5,86.5 Z"/></g>
<g><path style="opacity:1" fill="#de5a62" d="M 155.5,94.5 C 155.897,93.475 156.563,93.3083 157.5,94C 164.928,101.022 170.762,109.189 175,118.5C 175.991,120.447 176.325,122.447 176,124.5C 168.402,114.954 161.569,104.954 155.5,94.5 Z"/></g>
<g><path style="opacity:1" fill="#e0636a" d="M 103.5,109.5 C 104.376,109.369 105.043,109.702 105.5,110.5C 102.871,121.988 101.371,133.655 101,145.5C 100.027,143.608 99.3599,141.608 99,139.5C 98.3333,132.5 98.3333,125.5 99,118.5C 100.038,115.185 101.538,112.185 103.5,109.5 Z"/></g>
<g><path style="opacity:1" fill="#e1666c" d="M 86.5,117.5 C 88.8059,121.227 89.8059,125.394 89.5,130C 89.6174,133.67 88.9507,137.17 87.5,140.5C 83.9676,132.976 83.6343,125.309 86.5,117.5 Z"/></g>
<g><path style="opacity:1" fill="#de5b63" d="M 161.5,124.5 C 165.338,125.346 167.838,127.679 169,131.5C 171.168,137.679 171.834,144.012 171,150.5C 167.528,141.914 164.361,133.247 161.5,124.5 Z"/></g>
<g><path style="opacity:1" fill="#de5c64" d="M 146.5,124.5 C 148.173,125.343 149.34,126.676 150,128.5C 150.706,136.208 150.372,143.875 149,151.5C 146.841,142.664 146.008,133.664 146.5,124.5 Z"/></g>
<g><path style="opacity:1" fill="#df5c64" d="M 132.5,136.5 C 134.067,137.681 134.901,139.347 135,141.5C 136.221,147.144 136.887,152.811 137,158.5C 134.597,156.695 132.93,154.362 132,151.5C 131.274,146.448 131.441,141.448 132.5,136.5 Z"/></g>
<g><path style="opacity:1" fill="#df5c64" d="M 177.5,138.5 C 181.667,140.467 184.167,143.8 185,148.5C 185.934,156.605 185.601,164.605 184,172.5C 182.286,164.932 181.286,157.265 181,149.5C 180.395,145.631 179.229,141.965 177.5,138.5 Z"/></g>
<g><path style="opacity:1" fill="#de5961" d="M 78.5,168.5 C 78.7678,170.099 78.4345,171.432 77.5,172.5C 73.7212,163.552 72.5545,154.219 74,144.5C 75,142.5 76,140.5 77,138.5C 77.5002,148.504 78.0002,158.504 78.5,168.5 Z"/></g>
<g><path style="opacity:1" fill="#e1676d" d="M 158.5,147.5 C 159.222,147.918 159.722,148.584 160,149.5C 162.081,156.625 161.914,163.625 159.5,170.5C 155.994,162.956 155.661,155.29 158.5,147.5 Z"/></g>
<g><path style="opacity:1" fill="#de5a62" d="M 89.5,156.5 C 90.1174,156.611 90.6174,156.944 91,157.5C 91.8378,165.043 93.5044,172.376 96,179.5C 96.6667,181.833 96.6667,184.167 96,186.5C 93.9289,182.697 91.5956,179.03 89,175.5C 88.2944,169.13 88.4611,162.797 89.5,156.5 Z"/></g>
<g><path style="opacity:1" fill="#de5c63" d="M 132.5,168.5 C 135.103,176.778 138.603,184.778 143,192.5C 143.667,193.5 143.667,194.5 143,195.5C 133.809,188.489 130.309,179.489 132.5,168.5 Z"/></g>
<g><path style="opacity:1" fill="#eda5aa" d="M 78.5,168.5 C 79.6225,170.288 79.7891,172.288 79,174.5C 78.2828,173.956 77.7828,173.289 77.5,172.5C 78.4345,171.432 78.7678,170.099 78.5,168.5 Z"/></g>
<g><path style="opacity:1" fill="#fae2e4" d="M 120.5,109.5 C 120.205,111.735 120.539,113.735 121.5,115.5C 119.843,124.085 118.677,132.752 118,141.5C 115.797,159.521 117.964,176.855 124.5,193.5C 124.59,197.214 125.59,200.548 127.5,203.5C 128.135,206.493 128.301,209.493 128,212.5C 125.104,208.167 122.771,203.5 121,198.5C 113.878,168.738 113.712,139.072 120.5,109.5 Z"/></g>
<g><path style="opacity:1" fill="#dd555d" d="M 167.5,195.5 C 166.512,190.36 166.179,185.026 166.5,179.5C 166.372,177.345 166.872,175.345 168,173.5C 170.148,181.016 169.982,188.349 167.5,195.5 Z"/></g>
<g><path style="opacity:1" fill="#e88c93" d="M 166.5,179.5 C 166.179,185.026 166.512,190.36 167.5,195.5C 167.217,196.289 166.717,196.956 166,197.5C 165.181,191.319 165.347,185.319 166.5,179.5 Z"/></g>
<g><path style="opacity:1" fill="#f0b7bb" d="M 178.5,190.5 C 179.167,193.833 179.833,197.167 180.5,200.5C 180.44,201.043 180.107,201.376 179.5,201.5C 178.511,197.893 178.177,194.226 178.5,190.5 Z"/></g>
<g><path style="opacity:1" fill="#e8898e" d="M 124.5,193.5 C 126.346,196.54 127.679,199.873 128.5,203.5C 128.167,203.5 127.833,203.5 127.5,203.5C 125.59,200.548 124.59,197.214 124.5,193.5 Z"/></g>
<g><path style="opacity:0.012" fill="#000000" d="M 168.5,329.5 C 169.773,330.077 169.773,330.743 168.5,331.5C 167.537,331.03 167.537,330.363 168.5,329.5 Z"/></g>
</svg>
