<?xml version="1.0" encoding="UTF-8"?>
<!DOCTYPE svg PUBLIC "-//W3C//DTD SVG 1.1//EN" "http://www.w3.org/Graphics/SVG/1.1/DTD/svg11.dtd">
<svg xmlns="http://www.w3.org/2000/svg" version="1.1" width="262px" height="372px" style="shape-rendering:geometricPrecision; text-rendering:geometricPrecision; image-rendering:optimizeQuality; fill-rule:evenodd; clip-rule:evenodd" xmlns:xlink="http://www.w3.org/1999/xlink">
<g><path style="opacity:0.997" fill="#f47039" d="M 100.5,253.5 C 101.683,247.299 104.35,241.799 108.5,237C 114.759,237.342 120.425,235.675 125.5,232C 129.864,228.492 134.197,224.992 138.5,221.5C 144.371,219.069 150.371,216.902 156.5,215C 155.833,214.833 155.167,214.667 154.5,214.5C 147.091,216.756 139.758,218.756 132.5,220.5C 128.389,220.522 124.389,221.189 120.5,222.5C 120.167,222.167 119.833,221.833 119.5,221.5C 121.953,218.759 124.286,215.925 126.5,213C 130.312,214.306 134.312,214.639 138.5,214C 146.012,211.073 153.346,207.906 160.5,204.5C 165.178,203.831 169.844,202.998 174.5,202C 168.954,201.53 163.621,202.03 158.5,203.5C 151.827,202.999 145.161,202.333 138.5,201.5C 140.126,200.01 141.792,198.51 143.5,197C 145.279,197.044 146.945,197.711 148.5,199C 152.5,199.667 156.5,199.667 160.5,199C 164.631,197.765 168.631,196.265 172.5,194.5C 174.167,194.5 175.833,194.5 177.5,194.5C 181.514,194.666 185.514,194.499 189.5,194C 187.655,192.872 185.655,192.372 183.5,192.5C 179.833,192.5 176.167,192.5 172.5,192.5C 167.188,191.288 161.855,190.121 156.5,189C 158.699,187.303 161.032,185.803 163.5,184.5C 166.289,187.643 169.789,188.976 174,188.5C 178.724,188.36 183.224,187.36 187.5,185.5C 206.052,186.79 206.052,186.124 187.5,183.5C 183.591,181.975 179.591,180.641 175.5,179.5C 179.476,175.989 183.809,175.156 188.5,177C 192.152,177.499 195.818,177.665 199.5,177.5C 202.85,177.665 206.183,177.498 209.5,177C 207.753,176.648 206.086,176.148 204.5,175.5C 201.673,175.416 199.006,174.75 196.5,173.5C 196.611,172.883 196.944,172.383 197.5,172C 201.469,171.147 205.469,170.481 209.5,170C 204.593,169.365 199.926,169.865 195.5,171.5C 194.761,171.631 194.094,171.464 193.5,171C 196.316,166.527 198.982,162.027 201.5,157.5C 197.542,160.285 193.709,163.285 190,166.5C 189.505,168.473 189.338,170.473 189.5,172.5C 184.789,173.126 180.289,174.459 176,176.5C 179.38,168.894 182.88,161.227 186.5,153.5C 180.888,158.939 175.055,164.272 169,169.5C 166.718,172.273 166.218,175.273 167.5,178.5C 164.439,180.869 161.106,182.369 157.5,183C 161.088,174.992 163.921,166.826 166,158.5C 161.438,165.069 156.105,171.069 150,176.5C 147.483,180.47 146.983,184.636 148.5,189C 145.833,191 143.167,193 140.5,195C 139.517,195.591 138.85,195.257 138.5,194C 140.845,188.395 141.845,182.562 141.5,176.5C 144.634,170.928 146.468,164.928 147,158.5C 144.923,164.234 142.757,169.901 140.5,175.5C 134.76,181.308 130.26,187.974 127,195.5C 126.022,198.669 126.522,201.503 128.5,204C 124.667,207.833 120.833,211.667 117,215.5C 116.667,207.5 116.333,199.5 116,191.5C 115.667,191.167 115.333,190.833 115,190.5C 106.582,200.079 103.248,211.079 105,223.5C 106.022,224.354 106.855,225.354 107.5,226.5C 101.978,234.22 96.9776,242.22 92.5,250.5C 84.634,247.548 76.9673,244.214 69.5,240.5C 71.3729,228.673 74.0396,217.007 77.5,205.5C 83.4853,207.417 88.8186,206.25 93.5,202C 102.213,193.288 109.38,183.454 115,172.5C 120.097,166.895 125.597,161.895 131.5,157.5C 124.786,161.367 118.453,165.867 112.5,171C 102.215,175.474 92.5484,180.974 83.5,187.5C 83.1667,187 82.8333,186.5 82.5,186C 84.1438,181.571 85.4771,177.071 86.5,172.5C 90.1817,172.665 93.8484,172.499 97.5,172C 107.996,165.216 115.83,156.049 121,144.5C 126.433,138.567 132.266,133.233 138.5,128.5C 132.122,132.031 126.122,136.198 120.5,141C 111.56,144.468 103.227,148.968 95.5,154.5C 95.6043,151.16 96.6043,147.827 98.5,144.5C 102.122,143.675 105.789,143.175 109.5,143C 118.081,136.748 124.915,128.915 130,119.5C 134.478,115.365 138.978,111.365 143.5,107.5C 138.882,109.815 134.549,112.648 130.5,116C 122.771,118.698 115.438,122.198 108.5,126.5C 108.855,122.103 110.688,118.103 114,114.5C 118.949,116.234 123.449,115.401 127.5,112C 133.111,105.722 137.944,98.8884 142,91.5C 145.692,88.6352 149.192,85.6352 152.5,82.5C 148.458,84.3623 144.792,86.8623 141.5,90C 135.342,92.9119 129.342,96.0785 123.5,99.5C 123.947,95.7661 125.781,92.4328 129,89.5C 130.126,90.9436 131.626,91.6102 133.5,91.5C 142.34,87.997 149.007,81.997 153.5,73.5C 157.675,70.1648 162.008,66.9981 166.5,64C 164.402,64.0322 162.402,64.6989 160.5,66C 157.98,67.6971 155.647,69.5305 153.5,71.5C 147.582,72.8763 142.082,75.2097 137,78.5C 139.899,72.8928 143.732,67.7261 148.5,63C 147.092,62.6848 145.759,63.0181 144.5,64C 141.333,67.8333 138.167,71.6667 135,75.5C 132.921,65.7742 130.754,56.1076 128.5,46.5C 128.116,42.414 127.283,38.414 126,34.5C 126.318,40.7878 126.484,47.1211 126.5,53.5C 122.972,62.4908 122.805,71.4908 126,80.5C 126.903,81.7014 128.069,82.5348 129.5,83C 126,87.8333 122.5,92.6667 119,97.5C 116.679,86.54 113.512,75.8733 109.5,65.5C 108.65,60.7679 107.484,56.1012 106,51.5C 106.271,57.0055 107.105,62.3388 108.5,67.5C 107.831,72.5143 106.997,77.5143 106,82.5C 104.902,89.3846 105.569,96.0513 108,102.5C 109.558,104.359 111.391,105.859 113.5,107C 110.792,111.584 107.958,116.084 105,120.5C 101.919,109.097 98.7525,97.7641 95.5,86.5C 94.7838,80.7528 93.6172,75.0861 92,69.5C 92.6587,77.4543 93.1587,85.4543 93.5,93.5C 89.8838,103.971 89.0505,114.637 91,125.5C 92.9782,128.645 95.4782,131.312 98.5,133.5C 96.6667,137.167 94.8333,140.833 93,144.5C 89.0482,133.475 85.2148,122.475 81.5,111.5C 80.6304,105.355 79.1304,99.355 77,93.5C 77.8555,100.963 79.0222,108.296 80.5,115.5C 78.4693,124.214 77.136,133.047 76.5,142C 76.2125,150.406 78.8792,157.573 84.5,163.5C 83.4329,166.534 82.2663,169.534 81,172.5C 77.5134,160.869 73.3467,149.536 68.5,138.5C 67.2974,131.023 65.4641,123.69 63,116.5C 64.4827,125.742 65.6494,135.076 66.5,144.5C 63.7341,156.002 62.9007,167.669 64,179.5C 65.0587,182.618 66.3921,185.618 68,188.5C 70.3099,190.199 72.1433,192.199 73.5,194.5C 69.4945,207.867 65.8278,221.201 62.5,234.5C 31.5025,211.512 15.5025,180.512 14.5,141.5C 17.6839,86.5929 45.0172,49.7596 96.5,31C 144.487,18.7001 185.32,30.5334 219,66.5C 249.927,107.433 254.26,151.1 232,197.5C 205.487,241.007 166.654,260.507 115.5,256C 110.499,255.1 105.499,254.266 100.5,253.5 Z"/></g>
<g><path style="opacity:1" fill="#fabea5" d="M 128.5,46.5 C 127.833,48.8333 127.167,51.1667 126.5,53.5C 126.484,47.1211 126.318,40.7878 126,34.5C 127.283,38.414 128.116,42.414 128.5,46.5 Z"/></g>
<g><path style="opacity:0.999" fill="#fff7f4" d="M 128.5,46.5 C 130.754,56.1076 132.921,65.7742 135,75.5C 138.167,71.6667 141.333,67.8333 144.5,64C 145.759,63.0181 147.092,62.6848 148.5,63C 143.732,67.7261 139.899,72.8928 137,78.5C 142.082,75.2097 147.582,72.8763 153.5,71.5C 153.5,72.1667 153.5,72.8333 153.5,73.5C 149.007,81.997 142.34,87.997 133.5,91.5C 131.626,91.6102 130.126,90.9436 129,89.5C 125.781,92.4328 123.947,95.7661 123.5,99.5C 129.342,96.0785 135.342,92.9119 141.5,90C 144.792,86.8623 148.458,84.3623 152.5,82.5C 149.192,85.6352 145.692,88.6352 142,91.5C 137.944,98.8884 133.111,105.722 127.5,112C 123.449,115.401 118.949,116.234 114,114.5C 110.688,118.103 108.855,122.103 108.5,126.5C 115.438,122.198 122.771,118.698 130.5,116C 134.549,112.648 138.882,109.815 143.5,107.5C 138.978,111.365 134.478,115.365 130,119.5C 124.915,128.915 118.081,136.748 109.5,143C 105.789,143.175 102.122,143.675 98.5,144.5C 96.6043,147.827 95.6043,151.16 95.5,154.5C 103.227,148.968 111.56,144.468 120.5,141C 126.122,136.198 132.122,132.031 138.5,128.5C 132.266,133.233 126.433,138.567 121,144.5C 115.83,156.049 107.996,165.216 97.5,172C 93.8484,172.499 90.1817,172.665 86.5,172.5C 85.4771,177.071 84.1438,181.571 82.5,186C 82.8333,186.5 83.1667,187 83.5,187.5C 92.5484,180.974 102.215,175.474 112.5,171C 118.453,165.867 124.786,161.367 131.5,157.5C 125.597,161.895 120.097,166.895 115,172.5C 109.38,183.454 102.213,193.288 93.5,202C 88.8186,206.25 83.4853,207.417 77.5,205.5C 74.0396,217.007 71.3729,228.673 69.5,240.5C 66.1125,239.652 63.7791,237.652 62.5,234.5C 65.8278,221.201 69.4945,207.867 73.5,194.5C 72.1433,192.199 70.3099,190.199 68,188.5C 66.3921,185.618 65.0587,182.618 64,179.5C 62.9007,167.669 63.7341,156.002 66.5,144.5C 67.1667,142.5 67.8333,140.5 68.5,138.5C 73.3467,149.536 77.5134,160.869 81,172.5C 82.2663,169.534 83.4329,166.534 84.5,163.5C 78.8792,157.573 76.2125,150.406 76.5,142C 77.136,133.047 78.4693,124.214 80.5,115.5C 80.2322,113.901 80.5655,112.568 81.5,111.5C 85.2148,122.475 89.0482,133.475 93,144.5C 94.8333,140.833 96.6667,137.167 98.5,133.5C 95.4782,131.312 92.9782,128.645 91,125.5C 89.0505,114.637 89.8838,103.971 93.5,93.5C 94.1667,91.1667 94.8333,88.8333 95.5,86.5C 98.7525,97.7641 101.919,109.097 105,120.5C 107.958,116.084 110.792,111.584 113.5,107C 111.391,105.859 109.558,104.359 108,102.5C 105.569,96.0513 104.902,89.3846 106,82.5C 106.997,77.5143 107.831,72.5143 108.5,67.5C 108.328,66.5084 108.662,65.8417 109.5,65.5C 113.512,75.8733 116.679,86.54 119,97.5C 122.5,92.6667 126,87.8333 129.5,83C 128.069,82.5348 126.903,81.7014 126,80.5C 122.805,71.4908 122.972,62.4908 126.5,53.5C 127.167,51.1667 127.833,48.8333 128.5,46.5 Z"/></g>
<g><path style="opacity:1" fill="#fbc8b2" d="M 109.5,65.5 C 108.662,65.8417 108.328,66.5084 108.5,67.5C 107.105,62.3388 106.271,57.0055 106,51.5C 107.484,56.1012 108.65,60.7679 109.5,65.5 Z"/></g>
<g><path style="opacity:1" fill="#fdd9ca" d="M 153.5,73.5 C 153.5,72.8333 153.5,72.1667 153.5,71.5C 155.647,69.5305 157.98,67.6971 160.5,66C 162.402,64.6989 164.402,64.0322 166.5,64C 162.008,66.9981 157.675,70.1648 153.5,73.5 Z"/></g>
<g><path style="opacity:1" fill="#fccebb" d="M 95.5,86.5 C 94.8333,88.8333 94.1667,91.1667 93.5,93.5C 93.1587,85.4543 92.6587,77.4543 92,69.5C 93.6172,75.0861 94.7838,80.7528 95.5,86.5 Z"/></g>
<g><path style="opacity:1" fill="#fab79a" d="M 152.5,82.5 C 153.002,80.9153 154.002,80.4153 155.5,81C 154.756,82.0386 153.756,82.5386 152.5,82.5 Z"/></g>
<g><path style="opacity:1" fill="#fbc6af" d="M 81.5,111.5 C 80.5655,112.568 80.2322,113.901 80.5,115.5C 79.0222,108.296 77.8555,100.963 77,93.5C 79.1304,99.355 80.6304,105.355 81.5,111.5 Z"/></g>
<g><path style="opacity:1" fill="#fabea5" d="M 143.5,107.5 C 144.665,105.584 146.332,104.751 148.5,105C 147.09,106.372 145.423,107.205 143.5,107.5 Z"/></g>
<g><path style="opacity:1" fill="#f9b294" d="M 138.5,128.5 C 139.002,126.915 140.002,126.415 141.5,127C 140.756,128.039 139.756,128.539 138.5,128.5 Z"/></g>
<g><path style="opacity:1" fill="#fccfbd" d="M 68.5,138.5 C 67.8333,140.5 67.1667,142.5 66.5,144.5C 65.6494,135.076 64.4827,125.742 63,116.5C 65.4641,123.69 67.2974,131.023 68.5,138.5 Z"/></g>
<g><path style="opacity:1" fill="#fbc6b0" d="M 186.5,153.5 C 186.461,152.244 186.961,151.244 188,150.5C 188.585,151.998 188.085,152.998 186.5,153.5 Z"/></g>
<g><path style="opacity:1" fill="#fab89d" d="M 131.5,157.5 C 132.254,155.554 133.588,154.721 135.5,155C 134.529,156.481 133.196,157.315 131.5,157.5 Z"/></g>
<g><path style="opacity:1" fill="#fbbfa6" d="M 168.5,152.5 C 169.465,153.721 169.298,155.054 168,156.5C 167.421,155.072 167.588,153.738 168.5,152.5 Z"/></g>
<g><path style="opacity:1" fill="#fab496" d="M 201.5,157.5 C 201.461,156.244 201.961,155.244 203,154.5C 203.585,155.998 203.085,156.998 201.5,157.5 Z"/></g>
<g><path style="opacity:1" fill="#fff6f3" d="M 186.5,153.5 C 182.88,161.227 179.38,168.894 176,176.5C 180.289,174.459 184.789,173.126 189.5,172.5C 189.338,170.473 189.505,168.473 190,166.5C 193.709,163.285 197.542,160.285 201.5,157.5C 198.982,162.027 196.316,166.527 193.5,171C 194.094,171.464 194.761,171.631 195.5,171.5C 193.969,172.925 194.302,173.591 196.5,173.5C 199.006,174.75 201.673,175.416 204.5,175.5C 202.833,176.167 201.167,176.833 199.5,177.5C 195.818,177.665 192.152,177.499 188.5,177C 183.809,175.156 179.476,175.989 175.5,179.5C 179.591,180.641 183.591,181.975 187.5,183.5C 187.5,184.167 187.5,184.833 187.5,185.5C 183.224,187.36 178.724,188.36 174,188.5C 169.789,188.976 166.289,187.643 163.5,184.5C 161.032,185.803 158.699,187.303 156.5,189C 161.855,190.121 167.188,191.288 172.5,192.5C 172.5,193.167 172.5,193.833 172.5,194.5C 168.631,196.265 164.631,197.765 160.5,199C 156.5,199.667 152.5,199.667 148.5,199C 146.945,197.711 145.279,197.044 143.5,197C 141.792,198.51 140.126,200.01 138.5,201.5C 145.161,202.333 151.827,202.999 158.5,203.5C 159.492,203.328 160.158,203.662 160.5,204.5C 153.346,207.906 146.012,211.073 138.5,214C 134.312,214.639 130.312,214.306 126.5,213C 124.286,215.925 121.953,218.759 119.5,221.5C 119.833,221.833 120.167,222.167 120.5,222.5C 124.389,221.189 128.389,220.522 132.5,220.5C 134.735,220.205 136.735,220.539 138.5,221.5C 134.197,224.992 129.864,228.492 125.5,232C 120.425,235.675 114.759,237.342 108.5,237C 104.35,241.799 101.683,247.299 100.5,253.5C 97.6027,252.871 94.936,251.871 92.5,250.5C 96.9776,242.22 101.978,234.22 107.5,226.5C 106.855,225.354 106.022,224.354 105,223.5C 103.248,211.079 106.582,200.079 115,190.5C 115.333,190.833 115.667,191.167 116,191.5C 116.333,199.5 116.667,207.5 117,215.5C 120.833,211.667 124.667,207.833 128.5,204C 126.522,201.503 126.022,198.669 127,195.5C 130.26,187.974 134.76,181.308 140.5,175.5C 141.167,175.5 141.5,175.833 141.5,176.5C 141.845,182.562 140.845,188.395 138.5,194C 138.85,195.257 139.517,195.591 140.5,195C 143.167,193 145.833,191 148.5,189C 146.983,184.636 147.483,180.47 150,176.5C 156.105,171.069 161.438,165.069 166,158.5C 163.921,166.826 161.088,174.992 157.5,183C 161.106,182.369 164.439,180.869 167.5,178.5C 166.218,175.273 166.718,172.273 169,169.5C 175.055,164.272 180.888,158.939 186.5,153.5 Z"/></g>
<g><path style="opacity:1" fill="#fccbb8" d="M 141.5,176.5 C 141.5,175.833 141.167,175.5 140.5,175.5C 142.757,169.901 144.923,164.234 147,158.5C 146.468,164.928 144.634,170.928 141.5,176.5 Z"/></g>
<g><path style="opacity:1" fill="#fbbfa7" d="M 196.5,173.5 C 194.302,173.591 193.969,172.925 195.5,171.5C 199.926,169.865 204.593,169.365 209.5,170C 205.469,170.481 201.469,171.147 197.5,172C 196.944,172.383 196.611,172.883 196.5,173.5 Z"/></g>
<g><path style="opacity:1" fill="#f9b092" d="M 204.5,175.5 C 206.086,176.148 207.753,176.648 209.5,177C 206.183,177.498 202.85,177.665 199.5,177.5C 201.167,176.833 202.833,176.167 204.5,175.5 Z"/></g>
<g><path style="opacity:1" fill="#fbc5ae" d="M 187.5,183.5 C 206.052,186.124 206.052,186.79 187.5,185.5C 187.5,184.833 187.5,184.167 187.5,183.5 Z"/></g>
<g><path style="opacity:1" fill="#fbcfbd" d="M 172.5,192.5 C 176.167,192.5 179.833,192.5 183.5,192.5C 181.5,193.167 179.5,193.833 177.5,194.5C 175.833,194.5 174.167,194.5 172.5,194.5C 172.5,193.833 172.5,193.167 172.5,192.5 Z"/></g>
<g><path style="opacity:1" fill="#f8a683" d="M 183.5,192.5 C 185.655,192.372 187.655,192.872 189.5,194C 185.514,194.499 181.514,194.666 177.5,194.5C 179.5,193.833 181.5,193.167 183.5,192.5 Z"/></g>
<g><path style="opacity:1" fill="#fbc4ae" d="M 160.5,204.5 C 160.158,203.662 159.492,203.328 158.5,203.5C 163.621,202.03 168.954,201.53 174.5,202C 169.844,202.998 165.178,203.831 160.5,204.5 Z"/></g>
<g><path style="opacity:1" fill="#fccebb" d="M 138.5,221.5 C 136.735,220.539 134.735,220.205 132.5,220.5C 139.758,218.756 147.091,216.756 154.5,214.5C 155.167,214.667 155.833,214.833 156.5,215C 150.371,216.902 144.371,219.069 138.5,221.5 Z"/></g>
<g><path style="opacity:0.004" fill="#000000" d="M 77.5,341.5 C 78.8333,342.167 78.8333,342.167 77.5,341.5 Z"/></g>
</svg>
