<?xml version="1.0" encoding="UTF-8"?>
<!DOCTYPE svg PUBLIC "-//W3C//DTD SVG 1.1//EN" "http://www.w3.org/Graphics/SVG/1.1/DTD/svg11.dtd">
<svg xmlns="http://www.w3.org/2000/svg" version="1.1" width="262px" height="372px" style="shape-rendering:geometricPrecision; text-rendering:geometricPrecision; image-rendering:optimizeQuality; fill-rule:evenodd; clip-rule:evenodd" xmlns:xlink="http://www.w3.org/1999/xlink">
<g><path style="opacity:0.991" fill="#f68d2f" d="M 116.5,45.5 C 166.958,42.3101 205.458,61.9768 232,104.5C 254.076,150.336 250.076,193.669 220,234.5C 181.292,275.578 135.459,286.078 82.5,266C 39.0947,244.388 16.428,209.221 14.5,160.5C 19.6277,96.3809 53.6277,58.0476 116.5,45.5 Z"/></g>
<g><path style="opacity:1" fill="#fefcfa" d="M 169.5,129.5 C 169.5,132.833 169.5,136.167 169.5,139.5C 167.5,139.5 165.5,139.5 163.5,139.5C 146.549,137.736 132.383,143.069 121,155.5C 117.139,144.107 111.473,133.774 104,124.5C 103.892,118.691 105.558,113.358 109,108.5C 113.746,100.186 119.579,92.6858 126.5,86C 137.112,78.0115 146.945,78.8448 156,88.5C 164.593,100.78 169.093,114.446 169.5,129.5 Z"/></g>
<g><path style="opacity:1" fill="#f69239" d="M 137.5,89.5 C 143.113,88.079 145.28,90.079 144,95.5C 135.539,100.077 130.205,107.077 128,116.5C 124.302,118.169 121.802,117.003 120.5,113C 123.374,102.986 129.041,95.153 137.5,89.5 Z"/></g>
<g><path style="opacity:1" fill="#fefcfb" d="M 71.5,114.5 C 77.2184,114.52 82.5517,116.02 87.5,119C 106.244,135.547 115.077,156.38 114,181.5C 108.552,205.257 93.7184,215.09 69.5,211C 55.7094,204.938 47.5427,194.438 45,179.5C 42.9818,158.569 47.9818,139.569 60,122.5C 63.4821,119.161 67.3155,116.494 71.5,114.5 Z"/></g>
<g><path style="opacity:1" fill="#f69138" d="M 72.5,123.5 C 77.4943,123.329 79.3276,125.662 78,130.5C 70.7134,136.064 66.2134,143.397 64.5,152.5C 60.2266,154.518 57.8933,153.185 57.5,148.5C 59.2102,138.061 64.2102,129.728 72.5,123.5 Z"/></g>
<g><path style="opacity:1" fill="#fbd4b1" d="M 169.5,129.5 C 170.482,132.962 170.815,136.629 170.5,140.5C 167.941,140.802 165.607,140.468 163.5,139.5C 165.5,139.5 167.5,139.5 169.5,139.5C 169.5,136.167 169.5,132.833 169.5,129.5 Z"/></g>
<g><path style="opacity:1" fill="#fefcfb" d="M 155.5,147.5 C 169.182,146.955 182.516,148.788 195.5,153C 204.931,156.438 211.765,162.604 216,171.5C 216.591,178.069 214.924,184.069 211,189.5C 193.68,209.581 171.847,218.747 145.5,217C 125.482,210.303 116.982,196.47 120,175.5C 126.118,158.879 137.951,149.545 155.5,147.5 Z"/></g>
<g><path style="opacity:1" fill="#f69138" d="M 177.5,159.5 C 189.754,158.381 199.587,162.714 207,172.5C 207.664,177.496 205.498,179.33 200.5,178C 194.862,171.181 187.529,167.514 178.5,167C 176.163,164.806 175.83,162.306 177.5,159.5 Z"/></g>
<g><path style="opacity:0.041" fill="#000000" d="M 85.5,303.5 C 86.6009,302.402 87.9343,302.235 89.5,303C 88.2068,303.49 86.8734,303.657 85.5,303.5 Z"/></g>
<g><path style="opacity:0.066" fill="#000000" d="M 92.5,303.5 C 93.6009,302.402 94.9343,302.235 96.5,303C 95.2068,303.49 93.8734,303.657 92.5,303.5 Z"/></g>
</svg>
