<?xml version="1.0" encoding="UTF-8"?>
<!DOCTYPE svg PUBLIC "-//W3C//DTD SVG 1.1//EN" "http://www.w3.org/Graphics/SVG/1.1/DTD/svg11.dtd">
<svg xmlns="http://www.w3.org/2000/svg" version="1.1" width="262px" height="372px" style="shape-rendering:geometricPrecision; text-rendering:geometricPrecision; image-rendering:optimizeQuality; fill-rule:evenodd; clip-rule:evenodd" xmlns:xlink="http://www.w3.org/1999/xlink">
<g><path style="opacity:0.992" fill="#6d351e" d="M 123.5,46.5 C 175.023,46.3308 212.523,68.9974 236,114.5C 253.847,159.404 247.847,200.738 218,238.5C 184.378,273.701 143.878,285.201 96.5,273C 55.5351,259.036 29.3684,231.203 18,189.5C 8.20629,134.84 26.373,92.34 72.5,62C 88.5442,53.2454 105.544,48.0787 123.5,46.5 Z"/></g>
<g><path style="opacity:1" fill="#fcfbfb" d="M 160.5,89.5 C 166.324,88.5884 171.49,89.9218 176,93.5C 176.667,96.1667 176.667,98.8333 176,101.5C 171.667,104.5 167.333,107.5 163,110.5C 160.832,116.684 160.165,123.017 161,129.5C 179.073,152.234 185.073,177.9 179,206.5C 175.837,214.32 171.837,221.653 167,228.5C 164.766,230.7 162.266,232.533 159.5,234C 144.093,236.216 128.759,235.882 113.5,233C 99.9835,220.165 93.1502,204.331 93,185.5C 81.4417,170.169 77.7751,153.169 82,134.5C 86.422,123.744 94.2553,116.911 105.5,114C 98.8494,103.577 101.849,97.5771 114.5,96C 122.5,95.3333 130.5,95.3333 138.5,96C 129.829,97.0511 121.162,98.3844 112.5,100C 110.043,101.512 110.043,102.846 112.5,104C 115.833,104.667 119.167,104.667 122.5,104C 134.934,98.272 147.6,93.4387 160.5,89.5 Z"/></g>
<g><path style="opacity:1" fill="#743d27" d="M 117.5,114.5 C 119.792,114.244 121.959,114.577 124,115.5C 124.667,122.167 124.667,128.833 124,135.5C 116.934,147.173 111.1,159.506 106.5,172.5C 105.675,173.386 104.675,173.719 103.5,173.5C 104.867,159.758 109.367,147.091 117,135.5C 116.397,128.445 116.564,121.445 117.5,114.5 Z"/></g>
<g><path style="opacity:1" fill="#713a24" d="M 104.5,123.5 C 106.144,123.286 107.644,123.62 109,124.5C 109.667,127.833 109.667,131.167 109,134.5C 101.631,146.232 96.7974,158.899 94.5,172.5C 88.444,163.39 86.2773,153.39 88,142.5C 90.8728,133.8 96.3728,127.466 104.5,123.5 Z"/></g>
</svg>
