<?xml version="1.0" encoding="UTF-8"?>
<!DOCTYPE svg PUBLIC "-//W3C//DTD SVG 1.1//EN" "http://www.w3.org/Graphics/SVG/1.1/DTD/svg11.dtd">
<svg xmlns="http://www.w3.org/2000/svg" version="1.1" width="262px" height="372px" style="shape-rendering:geometricPrecision; text-rendering:geometricPrecision; image-rendering:optimizeQuality; fill-rule:evenodd; clip-rule:evenodd" xmlns:xlink="http://www.w3.org/1999/xlink">
<g><path style="opacity:0.991" fill="#05a75b" d="M 121.5,39.5 C 175.143,38.3879 213.643,61.7212 237,109.5C 256.112,162.885 244.612,208.385 202.5,246C 169.707,269.956 133.707,276.29 94.5,265C 54.4936,250.992 28.9936,223.492 18,182.5C 8.03601,128.681 25.536,86.5144 70.5,56C 86.4959,46.9445 103.496,41.4445 121.5,39.5 Z"/></g>
<g><path style="opacity:1" fill="#fbfdfc" d="M 127.5,140.5 C 126.833,139.167 126.167,137.833 125.5,136.5C 123.513,120.423 121.013,104.423 118,88.5C 118.837,104.208 120.337,119.875 122.5,135.5C 122.784,137.415 122.451,139.081 121.5,140.5C 100.798,135.641 90.9645,122.641 92,101.5C 94.5911,85.9758 101.591,72.9758 113,62.5C 130.228,71.296 141.562,84.9627 147,103.5C 147.724,119.617 141.224,131.95 127.5,140.5 Z"/></g>
<g><path style="opacity:1" fill="#3fb576" d="M 125.5,136.5 C 125.762,137.978 125.429,139.311 124.5,140.5C 123.83,138.709 123.163,137.042 122.5,135.5C 120.337,119.875 118.837,104.208 118,88.5C 121.013,104.423 123.513,120.423 125.5,136.5 Z"/></g>
<g><path style="opacity:1" fill="#fbfdfc" d="M 132.5,160.5 C 132.5,160.167 132.5,159.833 132.5,159.5C 142.986,155.344 153.319,151.01 163.5,146.5C 152.924,149.025 142.59,152.359 132.5,156.5C 131.532,154.393 131.198,152.059 131.5,149.5C 133.635,135.865 141.301,127.032 154.5,123C 168.097,121.211 181.097,123.211 193.5,129C 195.666,130.002 197.333,131.502 198.5,133.5C 195.243,143.915 190.076,153.249 183,161.5C 165.737,177.821 148.904,177.488 132.5,160.5 Z"/></g>
<g><path style="opacity:1" fill="#fbfdfc" d="M 121.5,157.5 C 120.081,158.451 118.415,158.784 116.5,158.5C 108.15,158.021 99.8171,157.355 91.5,156.5C 86.7254,154.948 81.7254,154.448 76.5,155C 81.1603,155.943 85.8269,156.777 90.5,157.5C 100.475,159.116 110.475,160.449 120.5,161.5C 120.5,162.167 120.5,162.833 120.5,163.5C 109.32,181.743 94.3197,185.577 75.5,175C 66.3668,168.699 58.7001,160.866 52.5,151.5C 65.1097,137.527 80.7763,131.361 99.5,133C 111.192,137.195 118.525,145.361 121.5,157.5 Z"/></g>
<g><path style="opacity:1" fill="#94d9b9" d="M 122.5,135.5 C 123.163,137.042 123.83,138.709 124.5,140.5C 125.429,139.311 125.762,137.978 125.5,136.5C 126.167,137.833 126.833,139.167 127.5,140.5C 127.5,141.167 127.167,141.5 126.5,141.5C 125.5,141.5 124.5,141.5 123.5,141.5C 122.508,141.672 121.842,141.338 121.5,140.5C 122.451,139.081 122.784,137.415 122.5,135.5 Z"/></g>
<g><path style="opacity:1" fill="#dbf2e7" d="M 123.5,141.5 C 124.5,141.5 125.5,141.5 126.5,141.5C 127.023,146.904 128.023,152.237 129.5,157.5C 130.168,154.694 130.834,152.028 131.5,149.5C 131.198,152.059 131.532,154.393 132.5,156.5C 131.375,157.652 131.375,158.652 132.5,159.5C 132.5,159.833 132.5,160.167 132.5,160.5C 131.5,160.5 130.5,160.5 129.5,160.5C 131.001,175.851 127.668,190.018 119.5,203C 118.668,203.688 118.002,203.521 117.5,202.5C 124.995,190.202 127.995,176.869 126.5,162.5C 125.282,161.839 123.949,161.172 122.5,160.5C 122.957,159.702 123.624,159.369 124.5,159.5C 125.097,159.265 125.43,158.765 125.5,158C 124.751,152.507 124.084,147.007 123.5,141.5 Z"/></g>
<g><path style="opacity:1" fill="#80d1a9" d="M 163.5,146.5 C 168.193,143.871 173.193,141.705 178.5,140C 180.447,139.009 182.447,138.675 184.5,139C 177.668,142.088 170.668,144.588 163.5,146.5 Z"/></g>
<g><path style="opacity:1" fill="#30b16e" d="M 163.5,146.5 C 153.319,151.01 142.986,155.344 132.5,159.5C 131.375,158.652 131.375,157.652 132.5,156.5C 142.59,152.359 152.924,149.025 163.5,146.5 Z"/></g>
<g><path style="opacity:1" fill="#85d3ad" d="M 91.5,156.5 C 90.8333,156.5 90.5,156.833 90.5,157.5C 85.8269,156.777 81.1603,155.943 76.5,155C 81.7254,154.448 86.7254,154.948 91.5,156.5 Z"/></g>
<g><path style="opacity:1" fill="#2daf6b" d="M 90.5,157.5 C 90.5,156.833 90.8333,156.5 91.5,156.5C 99.8171,157.355 108.15,158.021 116.5,158.5C 118.042,159.163 119.709,159.83 121.5,160.5C 121.376,161.107 121.043,161.44 120.5,161.5C 110.475,160.449 100.475,159.116 90.5,157.5 Z"/></g>
<g><path style="opacity:1" fill="#9ddcbe" d="M 121.5,157.5 C 122.71,157.932 123.71,158.599 124.5,159.5C 123.624,159.369 122.957,159.702 122.5,160.5C 123.949,161.172 125.282,161.839 126.5,162.5C 124.379,162.325 122.379,162.659 120.5,163.5C 120.5,162.833 120.5,162.167 120.5,161.5C 121.043,161.44 121.376,161.107 121.5,160.5C 119.709,159.83 118.042,159.163 116.5,158.5C 118.415,158.784 120.081,158.451 121.5,157.5 Z"/></g>
<g><path style="opacity:1" fill="#f1f9f5" d="M 58.5,213.5 C 58.2155,211.585 58.5489,209.919 59.5,208.5C 79.193,218.438 99.5264,219.938 120.5,213C 133.343,209.941 146.01,206.274 158.5,202C 170.235,198.639 180.901,200.639 190.5,208C 196.771,214.101 202.771,220.268 208.5,226.5C 200.244,226.509 191.91,226.676 183.5,227C 165.442,231.464 147.776,237.13 130.5,244C 122.75,244.869 115.083,246.202 107.5,248C 86.3108,251.739 70.8108,244.239 61,225.5C 59.2613,221.689 58.428,217.689 58.5,213.5 Z"/></g>
<g><path style="opacity:1" fill="#17aa60" d="M 168.5,203.5 C 176.014,203.174 181.847,206.174 186,212.5C 188.5,223.333 184.333,227.5 173.5,225C 165.742,221.65 162.575,215.816 164,207.5C 165.397,205.93 166.897,204.596 168.5,203.5 Z"/></g>
<g><path style="opacity:1" fill="#17aa60" d="M 145.5,208.5 C 158.431,208.593 164.598,214.927 164,227.5C 161.337,231.725 157.504,233.225 152.5,232C 143.992,229.173 139.825,223.339 140,214.5C 141.36,211.977 143.193,209.977 145.5,208.5 Z"/></g>
<g><path style="opacity:1" fill="#7ed1a9" d="M 59.5,208.5 C 58.5489,209.919 58.2155,211.585 58.5,213.5C 57.3709,211.372 57.2042,209.039 58,206.5C 58.7172,207.044 59.2172,207.711 59.5,208.5 Z"/></g>
<g><path style="opacity:1" fill="#13a95f" d="M 122.5,216.5 C 135.362,216.526 141.528,222.859 141,235.5C 140.215,237.286 139.049,238.786 137.5,240C 123.052,241.552 116.552,235.052 118,220.5C 119.397,218.93 120.897,217.596 122.5,216.5 Z"/></g>
<g><path style="opacity:1" fill="#14a960" d="M 74.5,218.5 C 84.4557,218.955 90.1224,224.122 91.5,234C 91.6951,236.352 91.0284,238.352 89.5,240C 80.4321,243.3 73.9321,240.467 70,231.5C 68.243,225.825 69.743,221.492 74.5,218.5 Z"/></g>
<g><path style="opacity:1" fill="#13a95f" d="M 96.5,219.5 C 107.821,218.505 114.488,223.505 116.5,234.5C 116.622,240.213 113.788,243.213 108,243.5C 102.439,242.959 98.1054,240.292 95,235.5C 91.2372,229.626 91.7372,224.292 96.5,219.5 Z"/></g>
</svg>
